<?xml version="1.0" encoding="UTF-8"?>
<!DOCTYPE svg PUBLIC "-//W3C//DTD SVG 1.1//EN" "http://www.w3.org/Graphics/SVG/1.1/DTD/svg11.dtd">
<!-- Creator: CorelDRAW 2017 -->
<svg xmlns="http://www.w3.org/2000/svg" xml:space="preserve" width="76px" height="62px" version="1.1" style="shape-rendering:geometricPrecision; text-rendering:geometricPrecision; image-rendering:optimizeQuality; fill-rule:evenodd; clip-rule:evenodd"
viewBox="0 0 5.526 4.514"
 xmlns:xlink="http://www.w3.org/1999/xlink">
 <defs>
  <style type="text/css">
   <![CDATA[
    .fil0 {fill:#CC3300}
   ]]>
  </style>
 </defs>
 <g id="Слой_x0020_1">
  <metadata id="CorelCorpID_0Corel-Layer"/>
  <g id="Взнос">
   <g>
    <g>
     <path class="fil0" d="M1.274 3.747c-0.133,0 -0.241,0.108 -0.241,0.241 0,0.132 0.108,0.24 0.241,0.24 0.132,0 0.24,-0.108 0.24,-0.24 0,-0.133 -0.108,-0.241 -0.24,-0.241zm0 0.319c-0.044,0 -0.079,-0.035 -0.079,-0.078 0,-0.044 0.035,-0.079 0.079,-0.079 0.043,0 0.078,0.035 0.078,0.079 0,0.043 -0.035,0.078 -0.078,0.078z"/>
    </g>
   </g>
   <g>
    <g>
     <path class="fil0" d="M5.151 0.376c-0.226,-0.226 -0.526,-0.359 -0.845,-0.374 -0.305,-0.015 -0.603,0.078 -0.843,0.263l-0.061 -0.007c-0.182,-0.021 -0.562,-0.064 -0.651,-0.075 -0.13,-0.015 -0.262,0.023 -0.363,0.107l-0.774 0.64c-0.124,0.103 -0.213,0.24 -0.256,0.396 -0.086,0.309 -0.244,0.856 -0.355,1.076l-0.34 0.339 -0.022 -0.022c-0.036,-0.036 -0.083,-0.056 -0.134,-0.056 -0.05,0 -0.097,0.02 -0.133,0.056l-0.319 0.318c-0.073,0.074 -0.073,0.194 0,0.267l0.085 0.085c0.031,0.031 0.081,0.031 0.112,0 0.03,-0.031 0.03,-0.081 0,-0.112l-0.085 -0.085c-0.008,-0.007 -0.009,-0.016 -0.009,-0.021 0,-0.005 0.001,-0.014 0.009,-0.022l0.319 -0.318c0.008,-0.008 0.017,-0.009 0.021,-0.009 0.005,0 0.014,0.001 0.022,0.009l0.078 0.078c0,0 0,0 0,0l0.499 0.499 0.577 0.577c0.008,0.008 0.009,0.017 0.009,0.022 0,0.004 -0.001,0.014 -0.009,0.021l-0.318 0.319c-0.008,0.008 -0.017,0.009 -0.022,0.009 -0.005,0 -0.014,-0.001 -0.021,-0.009l-0.713 -0.712c-0.03,-0.031 -0.081,-0.031 -0.111,0 -0.031,0.031 -0.031,0.081 0,0.112l0.712 0.712c0.037,0.037 0.085,0.055 0.133,0.055 0.048,0 0.097,-0.018 0.134,-0.055l0.318 -0.319c0.036,-0.035 0.056,-0.083 0.056,-0.133 0,-0.051 -0.02,-0.098 -0.056,-0.134l-0.022 -0.022 0.049 -0.05c0.043,-0.043 0.096,-0.074 0.154,-0.091 0.001,0 0.002,0 0.003,-0.001l0.58 -0.195c0.196,-0.067 0.369,-0.189 0.498,-0.353l0.29 -0.367 0.775 -0.775c0.037,0.007 0.082,0.012 0.123,0.013l0 0.063c0,0.024 0.025,0.046 0.059,0.046 0.031,0 0.061,-0.022 0.061,-0.046l0 -0.069c0.22,-0.031 0.37,-0.169 0.37,-0.419 0,-0.276 -0.193,-0.365 -0.37,-0.43l0 -0.412c0.142,0.01 0.195,0.075 0.244,0.075 0.061,0 0.089,-0.077 0.089,-0.116 0,-0.099 -0.195,-0.142 -0.333,-0.146l0 -0.055c0,-0.024 -0.03,-0.046 -0.061,-0.046 -0.034,0 -0.059,0.022 -0.059,0.046l0 0.059c-0.192,0.02 -0.385,0.122 -0.385,0.378 0,0.26 0.203,0.333 0.385,0.398l0 0.157c-0.055,-0.067 -0.146,-0.105 -0.264,-0.111 -0.268,-0.015 -0.638,0.135 -0.843,0.34 -0.131,0.13 -0.28,0.279 -0.361,0.361 -0.026,0.025 -0.06,0.039 -0.096,0.039l-0.003 0c-0.055,0 -0.13,-0.059 -0.151,-0.116l0 -0.778 0.259 -0.213 0.205 -0.032c-0.04,0.183 -0.04,0.373 0.001,0.556 0.008,0.037 0.04,0.062 0.077,0.062 0.005,0 0.011,-0.001 0.017,-0.002 0.043,-0.009 0.069,-0.051 0.06,-0.094 -0.043,-0.196 -0.034,-0.4 0.028,-0.591 0,-0.001 0,-0.001 0,-0.002 0.001,0 0.001,-0.001 0.001,-0.001 0.055,-0.169 0.147,-0.319 0.274,-0.445 0.027,-0.027 0.055,-0.053 0.085,-0.077 0,-0.001 0.001,-0.001 0.001,-0.002 0.001,0 0.001,0 0.001,0 0.214,-0.174 0.485,-0.263 0.763,-0.249 0.279,0.013 0.542,0.13 0.74,0.328 0.212,0.212 0.329,0.494 0.329,0.795 0,0.3 -0.117,0.582 -0.329,0.795 -0.28,0.28 -0.693,0.392 -1.077,0.294 -0.042,-0.011 -0.085,0.014 -0.096,0.056 -0.011,0.043 0.015,0.086 0.057,0.097 0.105,0.027 0.213,0.04 0.321,0.04 0.11,0 0.22,-0.014 0.327,-0.042 0.219,-0.057 0.419,-0.173 0.58,-0.333 0.242,-0.243 0.375,-0.565 0.375,-0.907 0,-0.343 -0.133,-0.665 -0.375,-0.907zm-0.798 1.026c0.1,0.043 0.179,0.1 0.179,0.228 0,0.115 -0.069,0.18 -0.179,0.201l0 -0.429zm-0.29 -0.463c0,-0.105 0.081,-0.156 0.195,-0.17l0 0.369c-0.108,-0.04 -0.195,-0.083 -0.195,-0.199zm-0.363 1.278l-0.074 -0.074c-0.014,-0.013 -0.021,-0.031 -0.021,-0.05 0,-0.019 0.007,-0.037 0.021,-0.05l0.129 -0.13c0.042,-0.041 0.096,-0.062 0.15,-0.062 0.043,0 0.086,0.013 0.123,0.039l-0.328 0.327zm-0.66 -1.379l-0.299 0.046c-0.014,0.002 -0.027,0.008 -0.038,0.017l-0.305 0.251c-0.018,0.015 -0.029,0.037 -0.029,0.061l0 0.827c0,0.007 0.001,0.014 0.003,0.021 0.034,0.128 0.177,0.241 0.306,0.241l0.003 0c0.078,0 0.152,-0.03 0.207,-0.085 0.082,-0.082 0.231,-0.231 0.361,-0.361 0.175,-0.174 0.499,-0.306 0.724,-0.294 0.051,0.003 0.119,0.015 0.153,0.056 0.001,0.002 0.003,0.004 0.005,0.006 0.017,0.017 0.063,0.063 0.005,0.149 -0.146,-0.115 -0.358,-0.106 -0.493,0.028l-0.129 0.13c-0.043,0.043 -0.067,0.101 -0.067,0.162 0,0.061 0.024,0.119 0.067,0.162l0.074 0.074 -0.356 0.356c-0.002,0.003 -0.004,0.005 -0.006,0.007l-0.293 0.371c-0.111,0.14 -0.258,0.244 -0.425,0.301l-0.578 0.195c-0.083,0.024 -0.159,0.069 -0.22,0.13l-0.049 0.05 -0.443 -0.443 -0.443 -0.443 0.348 -0.348c0.006,-0.006 0.011,-0.012 0.014,-0.019 0.119,-0.226 0.285,-0.797 0.373,-1.118 0.035,-0.125 0.106,-0.234 0.205,-0.316l0.774 -0.64c0.067,-0.056 0.156,-0.082 0.243,-0.072 0.078,0.01 0.379,0.044 0.575,0.067 -0.118,0.125 -0.207,0.27 -0.267,0.431z"/>
    </g>
   </g>
  </g>
 </g>
</svg>
