<?xml version="1.0" encoding="UTF-8"?>
<!DOCTYPE svg PUBLIC "-//W3C//DTD SVG 1.1//EN" "http://www.w3.org/Graphics/SVG/1.1/DTD/svg11.dtd">
<!-- Creator: CorelDRAW 2017 -->
<svg xmlns="http://www.w3.org/2000/svg" xml:space="preserve" width="60px" height="58px" version="1.1" style="shape-rendering:geometricPrecision; text-rendering:geometricPrecision; image-rendering:optimizeQuality; fill-rule:evenodd; clip-rule:evenodd"
viewBox="0 0 5.538 5.335"
 xmlns:xlink="http://www.w3.org/1999/xlink">
 <defs>
  <style type="text/css">
   <![CDATA[
    .fil0 {fill:#CC3300}
   ]]>
  </style>
 </defs>
 <g id="Слой_x0020_1">
  <metadata id="CorelCorpID_0Corel-Layer"/>
  <g id="Аукцион">
   <g>
    <g>
     <path class="fil0" d="M5.478 4.371l-1.139 -1.139c-0.038,-0.038 -0.09,-0.06 -0.145,-0.06 -0.038,0 -0.074,0.011 -0.106,0.03l-0.64 -0.64c-0.032,-0.033 -0.086,-0.033 -0.118,0 -0.033,0.033 -0.033,0.086 0,0.119l0.635 0.635 -0.234 0.234 -1.166 -1.165 0.235 -0.234 0.156 0.156c0.032,0.032 0.085,0.032 0.118,0 0.033,-0.033 0.033,-0.086 0,-0.119l-0.156 -0.156 0.406 -0.406 0.032 0.032c0.04,0.04 0.093,0.062 0.15,0.062 0.056,0 0.109,-0.022 0.149,-0.062l0.15 -0.149c0.04,-0.04 0.061,-0.093 0.061,-0.15 0,-0.056 -0.021,-0.109 -0.061,-0.149l-1.148 -1.148c-0.04,-0.04 -0.093,-0.062 -0.15,-0.062 -0.056,0 -0.109,0.022 -0.149,0.062l-0.15 0.149c-0.039,0.04 -0.061,0.093 -0.061,0.15 0,0.056 0.022,0.109 0.061,0.149l0.033 0.032 -1.284 1.284 -0.032 -0.032c-0.082,-0.083 -0.216,-0.083 -0.299,0l-0.149 0.149c-0.04,0.04 -0.062,0.093 -0.062,0.15 0,0.056 0.022,0.109 0.062,0.149l1.148 1.148c0.039,0.04 0.093,0.062 0.149,0.062 0.056,0 0.109,-0.022 0.149,-0.062l0.15 -0.15c0,0 0,0 0,0 0.082,-0.082 0.082,-0.216 0,-0.299l-0.032 -0.032 0.406 -0.405 1.17 1.17c-0.019,0.031 -0.03,0.067 -0.03,0.105 0,0.055 0.021,0.107 0.06,0.146l1.139 1.139c0.039,0.038 0.091,0.06 0.145,0.06 0.055,0 0.107,-0.022 0.146,-0.06l0.401 -0.402c0.039,-0.039 0.06,-0.091 0.06,-0.145 0,-0.055 -0.021,-0.107 -0.06,-0.146zm-3.151 -4.041l0.15 -0.149c0.008,-0.009 0.019,-0.013 0.03,-0.013 0.012,0 0.023,0.004 0.031,0.013l1.148 1.148c0.008,0.008 0.013,0.019 0.013,0.03 0,0.012 -0.005,0.023 -0.013,0.031l-0.15 0.149c-0.016,0.017 -0.045,0.017 -0.061,0l-1.148 -1.148c-0.008,-0.008 -0.013,-0.019 -0.013,-0.03 0,-0.012 0.005,-0.023 0.013,-0.031zm-0.373 2.791l-0.149 0.15c-0.017,0.016 -0.045,0.016 -0.062,0l-1.148 -1.148c-0.008,-0.008 -0.012,-0.019 -0.012,-0.03 0,-0.012 0.004,-0.023 0.012,-0.031l0.15 -0.15c0.008,-0.008 0.02,-0.012 0.031,-0.012 0.011,0 0.022,0.004 0.03,0.012l1.148 1.148c0.017,0.017 0.017,0.045 0,0.061zm0.433 -0.796c0,0 0,0 0,0l-0.465 0.466 -0.846 -0.847 1.283 -1.283 0.846 0.846 -0.465 0.465c0,0 0,0 0,0l-0.353 0.353zm2.973 2.218l-0.402 0.402c-0.01,0.009 -0.021,0.011 -0.027,0.011 -0.005,0 -0.016,-0.002 -0.026,-0.011l-1.139 -1.139c-0.009,-0.01 -0.011,-0.021 -0.011,-0.027 0,-0.005 0.001,-0.017 0.011,-0.026l0.024 -0.024 0.378 -0.378c0.009,-0.009 0.02,-0.011 0.026,-0.011 0.006,0 0.017,0.002 0.027,0.011l1.139 1.139c0.009,0.01 0.011,0.021 0.011,0.027 0,0.005 -0.002,0.017 -0.011,0.026z"/>
    </g>
   </g>
   <g>
    <g>
     <path class="fil0" d="M3.189 4.59l-0.128 0 0 -0.442c0,-0.099 -0.081,-0.179 -0.179,-0.179l-1.448 0c-0.046,0 -0.084,0.037 -0.084,0.084 0,0.046 0.038,0.084 0.084,0.084l1.448 0c0.006,0 0.011,0.005 0.011,0.011l0 0.442 -2.232 0 0 -0.442c0,-0.006 0.005,-0.011 0.011,-0.011l0.234 0c0.047,0 0.084,-0.038 0.084,-0.084 0,-0.047 -0.037,-0.084 -0.084,-0.084l-0.234 0c-0.098,0 -0.179,0.08 -0.179,0.179l0 0.442 -0.128 0c-0.201,0 -0.365,0.164 -0.365,0.365l0 0.239c0,0.078 0.063,0.141 0.14,0.141l3.274 0c0.077,0 0.14,-0.063 0.14,-0.141l0 -0.239c0,-0.201 -0.164,-0.365 -0.365,-0.365zm0.197 0.577l0 0 -3.218 0 0 -0.212c0,-0.108 0.088,-0.197 0.197,-0.197l2.824 0c0.109,0 0.197,0.089 0.197,0.197l0 0.212z"/>
    </g>
   </g>
  </g>
 </g>
</svg>
