<?xml version="1.0" encoding="UTF-8"?>
<!DOCTYPE svg PUBLIC "-//W3C//DTD SVG 1.1//EN" "http://www.w3.org/Graphics/SVG/1.1/DTD/svg11.dtd">
<!-- Creator: CorelDRAW 2017 -->
<svg xmlns="http://www.w3.org/2000/svg" xml:space="preserve" width="56px" height="66px" version="1.1" style="shape-rendering:geometricPrecision; text-rendering:geometricPrecision; image-rendering:optimizeQuality; fill-rule:evenodd; clip-rule:evenodd"
viewBox="0 0 6.494 7.6"
 xmlns:xlink="http://www.w3.org/1999/xlink">
 <defs>
  <style type="text/css">
   <![CDATA[
    .fil0 {fill:#CC3300}
   ]]>
  </style>
 </defs>
 <g id="Слой_x0020_1">
  <metadata id="CorelCorpID_0Corel-Layer"/>
  <g id="Покупка_x0020_авто">
   <g>
    <g>
     <path class="fil0" d="M6.237 4.245c-0.17,-0.394 -0.423,-0.804 -0.753,-1.218 -0.037,-0.047 -0.105,-0.055 -0.152,-0.018 -0.047,0.038 -0.055,0.106 -0.017,0.153 0.318,0.399 0.561,0.793 0.722,1.169 0.196,0.456 0.273,0.889 0.228,1.287 -0.047,0.412 -0.229,0.76 -0.542,1.035 -0.256,0.224 -0.599,0.401 -1.021,0.527 -0.729,0.217 -1.445,0.203 -1.452,0.203 -0.002,0 -0.004,0 -0.005,0 -0.008,0 -0.723,0.014 -1.453,-0.203 -0.421,-0.126 -0.765,-0.303 -1.021,-0.527 -0.313,-0.275 -0.495,-0.623 -0.542,-1.035 -0.071,-0.636 0.163,-1.348 0.696,-2.115 0.404,-0.58 0.894,-1.065 1.207,-1.348l2.231 0c0.14,0.127 0.32,0.298 0.512,0.501 0.041,0.043 0.109,0.045 0.153,0.004 0.043,-0.041 0.045,-0.109 0.004,-0.153 -0.151,-0.16 -0.296,-0.302 -0.42,-0.418 0.083,-0.061 0.138,-0.161 0.138,-0.272 0,-0.187 -0.152,-0.338 -0.338,-0.338l-0.031 0c0.122,-0.179 0.28,-0.425 0.398,-0.656 0.162,-0.317 0.209,-0.53 0.149,-0.669 -0.036,-0.082 -0.109,-0.135 -0.207,-0.149 -0.145,-0.022 -0.337,0.036 -0.579,0.11 -0.274,0.083 -0.584,0.178 -0.895,0.178 -0.31,0 -0.621,-0.095 -0.894,-0.178 -0.243,-0.074 -0.434,-0.132 -0.58,-0.11 -0.097,0.014 -0.171,0.067 -0.207,0.149 -0.06,0.139 -0.012,0.352 0.15,0.669 0.117,0.231 0.276,0.477 0.398,0.656l-0.031 0c-0.187,0 -0.339,0.151 -0.339,0.338 0,0.111 0.055,0.211 0.138,0.272 -0.751,0.701 -2.029,2.122 -1.868,3.553 0.094,0.837 0.689,1.441 1.721,1.747 0.747,0.222 1.456,0.212 1.512,0.211 0.007,0 0.022,0 0.044,0 0.176,0 0.807,-0.015 1.468,-0.211 1.032,-0.306 1.627,-0.91 1.721,-1.747 0.05,-0.436 -0.032,-0.906 -0.243,-1.397zm-4.472 -4.004c0.003,-0.007 0.008,-0.017 0.04,-0.022 0.097,-0.014 0.285,0.043 0.484,0.104 0.274,0.083 0.615,0.187 0.958,0.187 0.343,0 0.684,-0.104 0.958,-0.187 0.199,-0.061 0.387,-0.118 0.484,-0.104 0.033,0.005 0.037,0.015 0.04,0.022 0.009,0.022 0.076,0.243 -0.556,1.157 -0.018,0.026 -0.033,0.053 -0.046,0.081l-1.76 0c-0.013,-0.028 -0.028,-0.055 -0.046,-0.081 -0.631,-0.914 -0.565,-1.135 -0.556,-1.157zm0.318 1.454l2.329 0c0.066,0 0.121,0.055 0.121,0.122 0,0.067 -0.055,0.121 -0.121,0.121l-2.329 0c-0.067,0 -0.122,-0.054 -0.122,-0.121 0,-0.067 0.055,-0.122 0.122,-0.122z"/>
    </g>
   </g>
   <g>
    <g>
     <path class="fil0" d="M4.494 3.473c-0.333,-0.334 -0.776,-0.517 -1.247,-0.517 -0.471,0 -0.914,0.183 -1.247,0.517 -0.243,0.243 -0.409,0.549 -0.479,0.885 -0.012,0.058 0.025,0.116 0.084,0.128 0.058,0.012 0.116,-0.025 0.128,-0.084 0.062,-0.294 0.207,-0.563 0.42,-0.776 0.604,-0.603 1.585,-0.603 2.188,0 0.603,0.603 0.603,1.584 0,2.187 -0.603,0.603 -1.584,0.603 -2.188,0 -0.208,-0.208 -0.352,-0.469 -0.415,-0.756 -0.013,-0.058 -0.071,-0.095 -0.13,-0.082 -0.058,0.013 -0.095,0.071 -0.082,0.13 0.073,0.326 0.237,0.624 0.474,0.862 0.344,0.343 0.796,0.515 1.247,0.515 0.452,0 0.903,-0.172 1.247,-0.515 0.688,-0.688 0.688,-1.807 0,-2.494z"/>
    </g>
   </g>
   <g>
    <g>
     <path class="fil0" d="M3.363 4.632l-0.01 -0.004 0 -0.603 0.016 0.001c0.125,0.009 0.202,0.047 0.258,0.075 0.033,0.017 0.059,0.03 0.082,0.03 0.073,0 0.11,-0.096 0.11,-0.147 0,-0.07 -0.082,-0.114 -0.15,-0.139 -0.082,-0.029 -0.194,-0.048 -0.301,-0.051l-0.015 -0.001 0 -0.091c0,-0.025 -0.035,-0.05 -0.07,-0.05 -0.042,0 -0.068,0.026 -0.068,0.05l0 0.096 -0.013 0.001c-0.159,0.017 -0.527,0.101 -0.527,0.515 0,0.354 0.282,0.454 0.53,0.543l0.01 0.003 0 0.695 -0.016 -0.001c-0.186,-0.015 -0.286,-0.1 -0.359,-0.162 -0.04,-0.033 -0.071,-0.06 -0.1,-0.06 -0.06,0 -0.116,0.083 -0.116,0.147 0,0.127 0.224,0.315 0.576,0.321l0.015 0 0 0.103c0,0.024 0.026,0.051 0.068,0.051 0.035,0 0.07,-0.026 0.07,-0.051l0 -0.11 0.013 -0.001c0.321,-0.045 0.505,-0.253 0.505,-0.571 0,-0.371 -0.251,-0.495 -0.508,-0.589zm-0.131 -0.047l-0.02 -0.007c-0.155,-0.059 -0.283,-0.121 -0.283,-0.293 0,-0.142 0.099,-0.23 0.286,-0.253l0.017 -0.003 0 0.556zm0.122 0.963l-0.018 0.003 0 0 0 -0.64 0.021 0.009c0.134,0.057 0.259,0.138 0.259,0.332 0,0.159 -0.093,0.265 -0.262,0.296z"/>
    </g>
   </g>
  </g>
 </g>
</svg>
