<?xml version="1.0" encoding="UTF-8"?>
<!DOCTYPE svg PUBLIC "-//W3C//DTD SVG 1.1//EN" "http://www.w3.org/Graphics/SVG/1.1/DTD/svg11.dtd">
<!-- Creator: CorelDRAW 2017 -->
<svg xmlns="http://www.w3.org/2000/svg" xml:space="preserve" width="53px" height="26px" version="1.1" style="shape-rendering:geometricPrecision; text-rendering:geometricPrecision; image-rendering:optimizeQuality; fill-rule:evenodd; clip-rule:evenodd"
viewBox="0 0 5.886 2.918"
 xmlns:xlink="http://www.w3.org/1999/xlink">
 <defs>
  <style type="text/css">
   <![CDATA[
    .fil4 {fill:black}
    .fil2 {fill:#666666}
    .fil0 {fill:#CC3300}
    .fil3 {fill:#CCC2B8}
    .fil1 {fill:#CCCCCC}
   ]]>
  </style>
 </defs>
 <g id="Слой_x0020_1">
  <metadata id="CorelCorpID_0Corel-Layer"/>
  <g id="_2312190368912">
   <path class="fil0" d="M0.656 0.975l-0.163 0c-0.205,0 -0.372,0.166 -0.372,0.371l0 0.713c0,0.14 0.114,0.253 0.254,0.253l0.089 0 0.003 0c-0.005,-0.032 -0.008,-0.066 -0.008,-0.1 0,-0.322 0.262,-0.584 0.585,-0.584 0.322,0 0.584,0.262 0.584,0.584 0,0.035 -0.003,0.068 -0.008,0.1l1.009 0 0 -1.337 -1.126 0 -0.847 0z"/>
   <g>
    <path class="fil1" d="M1.62 2.312c0.005,-0.032 0.008,-0.065 0.008,-0.1 0,-0.322 -0.262,-0.584 -0.584,-0.584 -0.323,0 -0.585,0.262 -0.585,0.584 0,0.034 0.003,0.068 0.008,0.1 0.048,0.276 0.288,0.485 0.577,0.485 0.288,0 0.528,-0.209 0.576,-0.485zm-0.757 -0.1c0,-0.1 0.081,-0.181 0.181,-0.181 0.099,0 0.18,0.081 0.18,0.181 0,0.1 -0.081,0.181 -0.18,0.181 -0.1,0 -0.181,-0.081 -0.181,-0.181z"/>
    <polygon class="fil2" points="0.656,0.431 0.656,0.975 1.503,0.975 "/>
   </g>
   <path class="fil3" d="M1.044 2.031c-0.1,0 -0.181,0.081 -0.181,0.181 0,0.1 0.081,0.181 0.181,0.181 0.099,0 0.18,-0.081 0.18,-0.181 0,-0.1 -0.081,-0.181 -0.18,-0.181z"/>
   <path class="fil0" d="M2.629 0.975l0 1.337 1.613 0c-0.006,-0.032 -0.009,-0.065 -0.009,-0.1 0,-0.322 0.262,-0.584 0.585,-0.584 0.322,0 0.584,0.262 0.584,0.584 0,0.029 -0.002,0.057 -0.006,0.084 0.213,-0.056 0.369,-0.25 0.369,-0.48l0 -0.245c0,-0.329 -0.267,-0.596 -0.596,-0.596l-0.859 0 -1.681 0 0 0z"/>
   <path class="fil1" d="M4.233 2.212c0,0.035 0.003,0.068 0.009,0.1 0.047,0.276 0.287,0.485 0.576,0.485 0.294,0 0.538,-0.218 0.578,-0.501 0.004,-0.027 0.006,-0.055 0.006,-0.084 0,-0.322 -0.262,-0.584 -0.584,-0.584 -0.323,0 -0.585,0.262 -0.585,0.584zm0.404 0c0,-0.1 0.081,-0.181 0.181,-0.181 0.099,0 0.181,0.081 0.181,0.181 0,0.1 -0.082,0.181 -0.181,0.181 -0.1,0 -0.181,-0.081 -0.181,-0.181z"/>
   <path class="fil3" d="M4.818 2.031c-0.1,0 -0.181,0.081 -0.181,0.181 0,0.1 0.081,0.181 0.181,0.181 0.099,0 0.181,-0.081 0.181,-0.181 0,-0.1 -0.082,-0.181 -0.181,-0.181z"/>
   <path class="fil4" d="M0.493 0.853l0.042 0 0 -0.422c0,-0.045 0.024,-0.086 0.063,-0.107 0.039,-0.021 0.087,-0.019 0.124,0.005l0.659 0.423 0 -0.204c0,-0.067 0.055,-0.121 0.122,-0.121 0.067,0 0.121,0.054 0.121,0.121l0 0.305 0.883 0 0 -0.273c0,-0.067 0.054,-0.121 0.121,-0.121 0.067,0 0.122,0.054 0.122,0.121l0 0.273 1.267 0 -0.647 -0.646c-0.047,-0.047 -0.047,-0.124 0,-0.172 0.048,-0.047 0.125,-0.047 0.172,0l0.818 0.818 0.809 0c0.396,0 0.717,0.322 0.717,0.718l0 0.245c0,0.254 -0.155,0.48 -0.385,0.573 -0.079,0.306 -0.36,0.529 -0.683,0.529 -0.31,0 -0.577,-0.198 -0.671,-0.484l-2.433 0c-0.094,0.286 -0.361,0.484 -0.67,0.484 -0.31,0 -0.578,-0.198 -0.671,-0.484 -0.206,-0.001 -0.373,-0.169 -0.373,-0.375l0 -0.713c0,-0.272 0.221,-0.493 0.493,-0.493zm0.285 -0.2l0 0.2 0.312 0 -0.312 -0.2zm4.04 2.023c0.229,0 0.426,-0.171 0.458,-0.397 0,0 0,-0.001 0,-0.001 0.003,-0.021 0.005,-0.043 0.005,-0.066 0,-0.255 -0.208,-0.463 -0.463,-0.463 -0.256,0 -0.464,0.208 -0.464,0.463 0,0.027 0.003,0.054 0.007,0.08 0.039,0.222 0.23,0.384 0.457,0.384zm-3.774 0c0.223,0 0.413,-0.158 0.454,-0.376 0.001,-0.005 0.002,-0.01 0.003,-0.015 0.004,-0.024 0.006,-0.049 0.006,-0.073 0,-0.255 -0.208,-0.463 -0.463,-0.463 -0.256,0 -0.464,0.208 -0.464,0.463 0,0.027 0.002,0.054 0.007,0.08 0.038,0.222 0.23,0.384 0.457,0.384zm-0.801 -0.617c0,0.06 0.04,0.111 0.095,0.127 0.014,-0.377 0.325,-0.679 0.706,-0.679 0.382,0 0.694,0.305 0.705,0.684l2.363 0c0.012,-0.379 0.324,-0.684 0.706,-0.684 0.35,0 0.642,0.257 0.696,0.593 0.08,-0.07 0.13,-0.172 0.13,-0.284l0 -0.245c0,-0.208 -0.134,-0.385 -0.32,-0.449l0 0.21c0,0.067 -0.055,0.122 -0.122,0.122 -0.067,0 -0.121,-0.055 -0.121,-0.122l0 -0.236 -2.331 0 0 0.512c0,0.067 -0.055,0.121 -0.121,0.121 -0.067,0 -0.122,-0.054 -0.122,-0.121l0 -0.512 -1.729 0 0 0.236c0,0.067 -0.055,0.122 -0.121,0.122 -0.067,0 -0.122,-0.055 -0.122,-0.122l0 -0.236 -0.042 0c-0.138,0 -0.25,0.112 -0.25,0.25l0 0.713 0 0z"/>
   <path class="fil4" d="M4.637 2.091c0.067,0 0.121,0.054 0.121,0.121 0,0.033 0.027,0.06 0.06,0.06 0.032,0 0.059,-0.027 0.059,-0.06 0,-0.033 -0.027,-0.059 -0.059,-0.059 -0.067,0 -0.122,-0.055 -0.122,-0.122 0,-0.067 0.055,-0.121 0.122,-0.121 0.166,0 0.302,0.136 0.302,0.302 0,0.167 -0.136,0.303 -0.302,0.303 -0.167,0 -0.303,-0.136 -0.303,-0.303 0,-0.067 0.055,-0.121 0.122,-0.121z"/>
   <path class="fil4" d="M0.863 2.091c0.067,0 0.121,0.054 0.121,0.121 0,0.033 0.027,0.06 0.059,0.06 0.033,0 0.06,-0.027 0.06,-0.06 0,-0.033 -0.027,-0.059 -0.06,-0.059 -0.066,0 -0.121,-0.055 -0.121,-0.122 0,-0.067 0.055,-0.121 0.121,-0.121 0.167,0 0.303,0.136 0.303,0.302 0,0.167 -0.136,0.303 -0.303,0.303 -0.166,0 -0.302,-0.136 -0.302,-0.303 0,-0.067 0.055,-0.121 0.122,-0.121z"/>
   <path class="fil4" d="M2.629 1.829c0.066,0 0.121,0.054 0.121,0.121l0 0.029c0,0.067 -0.055,0.121 -0.121,0.121 -0.067,0 -0.122,-0.054 -0.122,-0.121l0 -0.029c0,-0.067 0.055,-0.121 0.122,-0.121z"/>
  </g>
 </g>
</svg>
