<?xml version="1.0" encoding="UTF-8"?>
<!DOCTYPE svg PUBLIC "-//W3C//DTD SVG 1.1//EN" "http://www.w3.org/Graphics/SVG/1.1/DTD/svg11.dtd">
<!-- Creator: CorelDRAW 2017 -->
<svg xmlns="http://www.w3.org/2000/svg" xml:space="preserve" width="64px" height="64px" version="1.1" style="shape-rendering:geometricPrecision; text-rendering:geometricPrecision; image-rendering:optimizeQuality; fill-rule:evenodd; clip-rule:evenodd"
viewBox="0 0 56.7 56.7"
 xmlns:xlink="http://www.w3.org/1999/xlink">
 <defs>
  <style type="text/css">
   <![CDATA[
    .fil0 {fill:#CC3300}
   ]]>
  </style>
 </defs>
 <g id="Слой_x0020_1">
  <metadata id="CorelCorpID_0Corel-Layer"/>
  <g id="Таможня">
   <path class="fil0" d="M54.328 25.515l-3.298 0 0 -5.923c0,-1.423 -1.159,-2.582 -2.582,-2.582l-1.198 0 0 -17.01 -37.8 0 0 1.89 -2.835 0 0 1.89 -2.835 0 0 6.615 -1.198 0c-1.423,0 -2.582,1.159 -2.582,2.582l0 41.284 0.006 0c-0.005,0.532 0.16,1.053 0.493,1.488 0.463,0.605 1.164,0.951 1.925,0.951l42.297 0c1.094,0 2.055,-0.737 2.314,-1.714l9.665 -26.495 0 -0.167c0,-1.628 -0.998,-2.809 -2.372,-2.809zm-5.88 -6.615c0.382,0 0.692,0.31 0.692,0.692l0 5.923 -1.89 0 0 -6.615 1.198 0zm-3.088 -17.01l0 15.12 0 8.505 -33.329 0c-0.22,0 -0.432,0.037 -0.637,0.093 -0.017,0.004 -0.037,0.002 -0.054,0.007l0 -23.725 34.02 0zm-35.91 1.89l0 24.178 -0.059 0.163 -0.886 2.427 0 -26.768 0.945 0zm-3.78 1.89l0.945 0 0 30.06 -0.945 2.591 0 -27.926 0 -4.725zm-3.78 7.307c0,-0.382 0.311,-0.692 0.692,-0.692l1.198 0 0 31.131 -1.89 5.155 0 -35.594zm43.345 41.44c-0.061,0.231 -0.273,0.393 -0.514,0.393l-42.297 0c-0.23,0 -0.364,-0.132 -0.424,-0.21 -0.059,-0.077 -0.151,-0.242 -0.116,-0.386l1.896 -5.197 0 0.001 2.835 -7.773 0 0 2.835 -7.772 0 0.003 1.826 -5.01 0.064 -0.175 0 0 0.151 -0.415 0.025 -0.077c0.062,-0.232 0.275,-0.394 0.515,-0.394l33.329 0 1.89 0 3.78 0 3.298 0c0.358,0 0.451,0.516 0.474,0.774l-9.567 26.238z"/>
   <path class="fil0" d="M17.01 16.065l22.68 0c0.522,0 0.945,-0.422 0.945,-0.945 0,-0.523 -0.423,-0.945 -0.945,-0.945l-22.68 0c-0.522,0 -0.945,0.422 -0.945,0.945 0,0.523 0.423,0.945 0.945,0.945z"/>
   <path class="fil0" d="M17.01 9.45l9.45 0c0.522,0 0.945,-0.422 0.945,-0.945 0,-0.523 -0.423,-0.945 -0.945,-0.945l-9.45 0c-0.522,0 -0.945,0.422 -0.945,0.945 0,0.523 0.423,0.945 0.945,0.945z"/>
   <path class="fil0" d="M17.01 22.68l22.68 0c0.522,0 0.945,-0.423 0.945,-0.945 0,-0.523 -0.423,-0.945 -0.945,-0.945l-22.68 0c-0.522,0 -0.945,0.422 -0.945,0.945 0,0.522 0.423,0.945 0.945,0.945z"/>
  </g>
 </g>
</svg>
