<?xml version="1.0" encoding="UTF-8"?>
<!DOCTYPE svg PUBLIC "-//W3C//DTD SVG 1.1//EN" "http://www.w3.org/Graphics/SVG/1.1/DTD/svg11.dtd">
<!-- Creator: CorelDRAW 2017 -->
<svg xmlns="http://www.w3.org/2000/svg" xml:space="preserve" width="72px" height="72px" version="1.1" style="shape-rendering:geometricPrecision; text-rendering:geometricPrecision; image-rendering:optimizeQuality; fill-rule:evenodd; clip-rule:evenodd"
viewBox="0 0 6.817 6.817"
 xmlns:xlink="http://www.w3.org/1999/xlink">
 <defs>
  <style type="text/css">
   <![CDATA[
    .fil0 {fill:#CC3300}
   ]]>
  </style>
 </defs>
 <g id="Слой_x0020_1">
  <metadata id="CorelCorpID_0Corel-Layer"/>
  <g id="Дом">
   <g>
    <g>
     <path class="fil0" d="M1.81 6.152c-0.047,-0.267 -0.28,-0.471 -0.56,-0.471 -0.224,0 -0.418,0.13 -0.51,0.318 -0.019,-0.013 -0.038,-0.024 -0.058,-0.035l0 -1.874c0,-0.062 -0.051,-0.113 -0.114,-0.113 -0.063,0 -0.114,0.051 -0.114,0.113l0 1.818c-0.25,0 -0.454,0.204 -0.454,0.455 0,0.25 0.204,0.454 0.454,0.454l1.25 0c0.188,0 0.341,-0.153 0.341,-0.341 0,-0.151 -0.099,-0.28 -0.235,-0.324zm-0.106 0.438l-1.25 0c-0.125,0 -0.227,-0.102 -0.227,-0.227 0,-0.126 0.102,-0.228 0.227,-0.228 0.106,0 0.201,0.062 0.235,0.154 0.019,0.051 0.072,0.082 0.127,0.072 0.054,-0.01 0.093,-0.057 0.093,-0.112 0,-0.188 0.153,-0.341 0.341,-0.341 0.188,0 0.341,0.153 0.341,0.341 0,0.063 0.051,0.114 0.113,0.114 0.063,0 0.114,0.051 0.114,0.113 0,0.063 -0.051,0.114 -0.114,0.114z"/>
     <path class="fil0" d="M6.703 0.909l-2.158 0c-0.063,0 -0.114,0.051 -0.114,0.114 0,0.062 0.051,0.113 0.114,0.113l2.045 0 0 2.453 -3.101 -3.101c-0.022,-0.023 -0.052,-0.034 -0.081,-0.034 -0.029,0 -0.058,0.011 -0.08,0.034l-3.101 3.101 0 -2.453 1.25 0c0.063,0 0.114,-0.051 0.114,-0.113l0 -0.455c0,-0.063 -0.051,-0.114 -0.114,-0.114l-0.114 0 0 -0.227 0.682 0 0 0.227 -0.114 0c-0.062,0 -0.113,0.051 -0.113,0.114l0 0.455c0,0.062 0.051,0.113 0.114,0.113l0.34 0c0.063,0 0.114,-0.051 0.114,-0.113 0,-0.063 -0.051,-0.114 -0.114,-0.114l-0.227 0 0 -0.227 0.114 0c0.062,0 0.113,-0.051 0.113,-0.114l0 -0.454c0,-0.063 -0.051,-0.114 -0.113,-0.114l-0.909 0c-0.063,0 -0.114,0.051 -0.114,0.114l0 0.454c0,0.063 0.051,0.114 0.114,0.114l0.113 0 0 0.227 -1.249 0c-0.03,0 -0.059,0.012 -0.081,0.033 -0.021,0.021 -0.033,0.05 -0.033,0.081l0 2.84c0,0.046 0.028,0.087 0.071,0.105 0.014,0.006 0.028,0.009 0.043,0.009 0.03,0 0.059,-0.012 0.08,-0.034l3.214 -3.215 3.215 3.215c0.022,0.022 0.051,0.034 0.08,0.034 0.015,0 0.03,-0.003 0.044,-0.009 0.042,-0.018 0.07,-0.059 0.07,-0.105l0 -2.84c0,-0.063 -0.051,-0.114 -0.114,-0.114z"/>
     <path class="fil0" d="M6.363 5.908l0 -1.818c0,-0.062 -0.051,-0.113 -0.114,-0.113 -0.063,0 -0.114,0.051 -0.114,0.113l0 1.874c-0.02,0.011 -0.039,0.022 -0.058,0.035 -0.092,-0.188 -0.286,-0.318 -0.51,-0.318 -0.28,0 -0.513,0.204 -0.56,0.471 -0.136,0.044 -0.235,0.173 -0.235,0.324 0,0.04 0.008,0.078 0.021,0.114l-1.953 0c-0.062,0 -0.113,0.051 -0.113,0.113 0,0.063 0.051,0.114 0.113,0.114l2.273 0 0.454 0 0.796 0c0.25,0 0.454,-0.204 0.454,-0.454 0,-0.251 -0.204,-0.455 -0.454,-0.455zm0 0.682l-0.796 0 -0.454 0c-0.063,0 -0.114,-0.051 -0.114,-0.114 0,-0.062 0.051,-0.113 0.114,-0.113 0.062,0 0.113,-0.051 0.113,-0.114 0,-0.188 0.153,-0.341 0.341,-0.341 0.188,0 0.341,0.153 0.341,0.341 0,0.055 0.039,0.102 0.093,0.112 0.054,0.01 0.108,-0.021 0.127,-0.072 0.034,-0.092 0.129,-0.154 0.235,-0.154 0.125,0 0.227,0.102 0.227,0.228 0,0.125 -0.102,0.227 -0.227,0.227z"/>
     <path class="fil0" d="M3.863 2.272c0,-0.25 -0.204,-0.454 -0.454,-0.454 -0.251,0 -0.455,0.204 -0.455,0.454 0,0.251 0.204,0.455 0.455,0.455 0.25,0 0.454,-0.204 0.454,-0.455zm-0.682 0c0,-0.125 0.102,-0.227 0.228,-0.227 0.125,0 0.227,0.102 0.227,0.227 0,0.126 -0.102,0.228 -0.227,0.228 -0.126,0 -0.228,-0.102 -0.228,-0.228z"/>
     <path class="fil0" d="M5.567 3.863l-0.909 0c-0.062,0 -0.113,0.051 -0.113,0.114l0 1.249 -0.114 0c-0.063,0 -0.114,0.051 -0.114,0.114 0,0.063 0.051,0.114 0.114,0.114l1.363 0c0.063,0 0.114,-0.051 0.114,-0.114 0,-0.063 -0.051,-0.114 -0.114,-0.114l-0.113 0 0 -1.249c0,-0.063 -0.051,-0.114 -0.114,-0.114zm-0.113 1.363l-0.682 0 0 -0.454 0.682 0 0 0.454zm0 -0.681l-0.682 0 0 -0.455 0.682 0 0 0.455z"/>
     <path class="fil0" d="M4.545 6.249c0,-0.063 -0.051,-0.114 -0.114,-0.114l-0.341 0 0 -2.158c0,-0.063 -0.051,-0.114 -0.113,-0.114l-1.137 0c-0.062,0 -0.113,0.051 -0.113,0.114l0 2.158 -0.341 0c-0.063,0 -0.114,0.051 -0.114,0.114l0 0.454c0,0.063 0.051,0.114 0.114,0.114 0.063,0 0.114,-0.051 0.114,-0.114l0 -0.34 1.931 0c0.063,0 0.114,-0.051 0.114,-0.114zm-0.682 -1.25l-0.114 0c-0.062,0 -0.113,0.051 -0.113,0.114 0,0.062 0.051,0.113 0.113,0.113l0.114 0 0 0.909 -0.909 0 0 -2.045 0.909 0 0 0.909z"/>
     <path class="fil0" d="M2.159 3.863l-0.909 0c-0.063,0 -0.114,0.051 -0.114,0.114l0 1.249 -0.113 0c-0.063,0 -0.114,0.051 -0.114,0.114 0,0.063 0.051,0.114 0.114,0.114l1.363 0c0.063,0 0.114,-0.051 0.114,-0.114 0,-0.063 -0.051,-0.114 -0.114,-0.114l-0.114 0 0 -1.249c0,-0.063 -0.051,-0.114 -0.113,-0.114zm-0.114 1.363l-0.682 0 0 -0.454 0.682 0 0 0.454zm0 -0.681l-0.682 0 0 -0.455 0.682 0 0 0.455z"/>
    </g>
   </g>
  </g>
 </g>
</svg>
