<?xml version="1.0" encoding="UTF-8"?>
<!DOCTYPE svg PUBLIC "-//W3C//DTD SVG 1.1//EN" "http://www.w3.org/Graphics/SVG/1.1/DTD/svg11.dtd">
<!-- Creator: CorelDRAW 2017 -->
<svg xmlns="http://www.w3.org/2000/svg" xml:space="preserve" width="72px" height="73px" version="1.1" style="shape-rendering:geometricPrecision; text-rendering:geometricPrecision; image-rendering:optimizeQuality; fill-rule:evenodd; clip-rule:evenodd"
viewBox="0 0 38.356 39.207"
 xmlns:xlink="http://www.w3.org/1999/xlink">
 <defs>
  <style type="text/css">
   <![CDATA[
    .str0 {stroke:white;stroke-width:0.116;stroke-miterlimit:22.9256}
    .fil0 {fill:#CC3300}
   ]]>
  </style>
 </defs>
 <g id="Слой_x0020_1">
  <metadata id="CorelCorpID_0Corel-Layer"/>
  <g id="_2312496872496">
   <g>
    <g>
     <rect class="fil0 str0" x="9.83" y="11.53" width="18.696" height="1.7"/>
     <rect class="fil0 str0" x="26.826" y="14.08" width="1.7" height="1.7"/>
     <rect class="fil0 str0" x="9.83" y="14.08" width="1.7" height="1.7"/>
     <rect class="fil0 str0" x="18.328" y="6.006" width="1.7" height="1.7"/>
     <rect class="fil0 str0" x="20.878" y="6.006" width="1.7" height="1.7"/>
     <rect class="fil0 str0" x="15.779" y="6.006" width="1.7" height="1.7"/>
     <rect class="fil0 str0" x="13.23" y="6.006" width="1.7" height="1.7"/>
     <rect class="fil0 str0" x="23.427" y="6.006" width="1.7" height="1.7"/>
     <path class="fil0 str0" d="M34.712 36.699c-0.746,0.398 -1.392,0.741 -2.74,0.749l5.008 -15.027c0.138,-0.413 -0.06,-0.864 -0.457,-1.043l-4.598 -2.069 0 -8.204c0,-1.405 -1.143,-2.549 -2.549,-2.549l-1.275 0 0 -4.249c0,-0.47 -0.38,-0.85 -0.85,-0.85l-7.223 0 0 -3.399 -1.7 0 0 3.399 -7.223 0c-0.469,0 -0.85,0.38 -0.85,0.85l0 4.249 -1.274 0c-1.406,0 -2.55,1.143 -2.55,2.549l0 8.203 -4.598 2.07c-0.397,0.179 -0.595,0.63 -0.457,1.043l5.009 15.027c-1.349,-0.008 -1.995,-0.351 -2.741,-0.749 -0.834,-0.445 -1.78,-0.95 -3.586,-0.95l0 1.7c1.381,0 2.032,0.347 2.787,0.75 0.834,0.445 1.78,0.95 3.586,0.95 0.478,0 0.886,-0.032 1.246,-0.097 1.043,-0.164 1.732,-0.531 2.341,-0.855 0.753,-0.401 1.403,-0.748 2.778,-0.748 1.381,0 2.033,0.347 2.787,0.75 0.835,0.445 1.781,0.95 3.587,0.95 1.806,0 2.752,-0.505 3.587,-0.95 0.754,-0.402 1.405,-0.75 2.786,-0.75 1.381,0 2.033,0.347 2.788,0.748 0.611,0.324 1.302,0.691 2.348,0.855 0.36,0.065 0.768,0.097 1.246,0.097 1.806,0 2.752,-0.505 3.587,-0.95 0.754,-0.402 1.406,-0.75 2.786,-0.75l0 -1.699c-1.805,-0.001 -2.751,0.504 -3.586,0.949zm0.413 -14.087l-0.609 1.829 -14.488 -6.657 0 -1.965 15.097 6.793zm-23.17 -17.455l14.446 0 0 3.399 -14.446 0 0 -3.399zm-3.824 5.948c0,-0.468 0.381,-0.849 0.849,-0.849l2.125 -0.001 16.146 0 2.125 0c0.468,0 0.849,0.382 0.849,0.85l0 7.439 -10.698 -4.814c-0.222,-0.1 -0.476,-0.1 -0.698,0l-10.699 4.813 0 -7.438 0.001 0zm-4.9 11.507l15.097 -6.793 0 1.965 -14.487 6.657 -0.61 -1.829zm27.028 14.599c-0.413,-0.134 -0.755,-0.315 -1.13,-0.515 -0.835,-0.444 -1.782,-0.946 -3.586,-0.946 -1.806,0 -2.752,0.504 -3.586,0.949 -0.755,0.403 -1.406,0.75 -2.787,0.75 -1.381,0 -2.033,-0.347 -2.787,-0.75 -0.835,-0.445 -1.781,-0.949 -3.587,-0.949 -1.8,0 -2.744,0.503 -3.578,0.947 -0.373,0.199 -0.712,0.379 -1.121,0.513l-3.716 -11.148 13.947 -6.408 0 10.147 1.7 0 0 -10.147 13.947 6.408 -3.716 11.149z"/>
    </g>
   </g>
  </g>
 </g>
</svg>
