<?xml version="1.0" encoding="UTF-8"?>
<!DOCTYPE svg PUBLIC "-//W3C//DTD SVG 1.1//EN" "http://www.w3.org/Graphics/SVG/1.1/DTD/svg11.dtd">
<!-- Creator: CorelDRAW 2017 -->
<svg xmlns="http://www.w3.org/2000/svg" xml:space="preserve" width="68px" height="68px" version="1.1" style="shape-rendering:geometricPrecision; text-rendering:geometricPrecision; image-rendering:optimizeQuality; fill-rule:evenodd; clip-rule:evenodd"
viewBox="0 0 15.622 15.622"
 xmlns:xlink="http://www.w3.org/1999/xlink">
 <defs>
  <style type="text/css">
   <![CDATA[
    .fil0 {fill:#CC3300}
   ]]>
  </style>
 </defs>
 <g id="Слой_x0020_1">
  <metadata id="CorelCorpID_0Corel-Layer"/>
  <g id="Порт_x0020_США">
   <path class="fil0" d="M13.181 6.102c1.346,0 2.441,-1.204 2.441,-2.685l0 -0.973c0.001,-0.115 -0.079,-0.218 -0.195,-0.242l-10.74 -2.197c-0.021,-0.004 -0.041,-0.006 -0.061,-0.005l-1.453 0c-0.002,0 -0.003,0 -0.005,0.001 -0.005,0 -0.01,0 -0.014,0 -0.004,0.001 -0.007,0.001 -0.01,0.001 -0.005,0.001 -0.009,0.002 -0.014,0.002 -0.004,0.001 -0.007,0.002 -0.01,0.002 -0.005,0.001 -0.009,0.002 -0.013,0.004 -0.004,0.001 -0.007,0.002 -0.011,0.003 -0.004,0.001 -0.007,0.003 -0.011,0.004 -0.004,0.002 -0.008,0.003 -0.011,0.005 -0.004,0.001 -0.007,0.003 -0.011,0.005 -0.004,0.002 -0.007,0.004 -0.011,0.006 -0.003,0.002 -0.006,0.004 -0.01,0.006 -0.003,0.002 -0.007,0.004 -0.01,0.007 -0.002,0.001 -0.004,0.002 -0.005,0.003l-2.929 2.197c-0.002,0.001 -0.003,0.002 -0.005,0.004 -0.003,0.002 -0.006,0.004 -0.009,0.007 -0.003,0.003 -0.007,0.006 -0.01,0.009 -0.002,0.002 -0.004,0.004 -0.006,0.006 -0.004,0.004 -0.007,0.008 -0.01,0.012 -0.002,0.002 -0.003,0.004 -0.005,0.005 -0.003,0.005 -0.007,0.009 -0.01,0.014 -0.001,0.002 -0.002,0.004 -0.004,0.005 -0.003,0.005 -0.006,0.01 -0.008,0.015 -0.002,0.002 -0.003,0.004 -0.004,0.006 -0.002,0.005 -0.005,0.01 -0.007,0.015 -0.001,0.002 -0.002,0.005 -0.003,0.008 -0.002,0.004 -0.003,0.009 -0.005,0.013 -0.001,0.003 -0.002,0.007 -0.003,0.01 -0.001,0.004 -0.002,0.009 -0.003,0.013 -0.001,0.003 -0.001,0.007 -0.002,0.01 -0.001,0.005 -0.002,0.01 -0.002,0.015 -0.001,0.002 -0.001,0.005 -0.001,0.008 0,0.005 -0.001,0.011 -0.001,0.017 0,0.001 0,0.002 0,0.003l0 0.976c0,0.135 0.109,0.245 0.244,0.245l0.732 0 0 0.732c0,0.135 0.11,0.244 0.244,0.244l0.977 0c0.135,0 0.244,-0.109 0.244,-0.244l0 -0.732 0.488 0 0 8.543 -0.488 0c-0.135,0 -0.244,0.109 -0.244,0.244l0 1.708 -0.488 0c-0.27,0 -0.489,0.219 -0.489,0.488l0 0.733c0,0.134 0.11,0.244 0.245,0.244l4.881 0c0.135,0 0.244,-0.109 0.244,-0.244l0 -0.733c0,-0.269 -0.219,-0.488 -0.488,-0.488l-0.488 0 0 -1.708c0,-0.135 -0.109,-0.244 -0.244,-0.244l-0.488 0 0 -8.543 6.102 0 0 4.393 -0.488 0c-0.075,0 -0.147,0.035 -0.193,0.094 -0.046,0.059 -0.062,0.137 -0.044,0.21l0.244 0.976c0.027,0.108 0.125,0.185 0.237,0.185l0.244 0 0 0.244c0,0.269 0.219,0.488 0.488,0.488l0.148 0c0.053,0 0.096,0.043 0.096,0.096 0,0.051 -0.032,0.075 -0.051,0.085 -0.019,0.01 -0.056,0.023 -0.098,-0.005l-0.204 -0.135c-0.112,-0.075 -0.263,-0.045 -0.338,0.068 -0.028,0.041 -0.041,0.088 -0.041,0.135l-3.173 0c-0.269,0 -0.488,0.219 -0.488,0.488l0 3.417c0,0.27 0.219,0.489 0.488,0.489l6.834 0c0.269,0 0.488,-0.219 0.488,-0.489l0 -3.417c0,-0.269 -0.219,-0.488 -0.488,-0.488l-2.46 0c0.013,-0.048 0.019,-0.097 0.019,-0.148 0,-0.322 -0.262,-0.584 -0.584,-0.584l-0.148 0 0 -0.244 0.244 0c0.112,0 0.21,-0.077 0.237,-0.185l0.244 -0.977c0.018,-0.073 0.002,-0.15 -0.044,-0.209 -0.047,-0.059 -0.118,-0.094 -0.193,-0.094l-0.488 0 0 -2.871c0.39,0.576 0.989,0.918 1.709,0.918zm1.464 8.299l-6.834 0 0 -3.417 6.834 0 0 3.417zm-3.119 -5.37l-0.596 0 -0.122 -0.488 0.84 0 -0.122 0.488zm1.655 -3.417c-0.942,0 -1.617,-0.791 -1.7,-1.952l3.64 0c-0.108,1.096 -0.937,1.952 -1.94,1.952zm-8.299 -5.071l8.085 1.654 -8.085 0 0 -1.654zm-0.488 -0.055l0 1.709 -0.977 0c0,-0.426 0,-1.709 0,-1.709l0.977 0zm-0.977 7.291l0.977 0.651 0 0.471 -0.977 0.651c0,-0.621 0,-0.94 0,-1.773zm0.977 0.064l-0.977 -0.651c0,-0.23 0,-0.236 0,-0.471l0.977 -0.651 0 1.773zm-0.977 2.295l0.977 -0.65 0 1.772 -0.977 -0.651c0,-0.11 0,-0.334 0,-0.471zm0.977 -4.654l-0.977 0.65c0,-0.885 0,-0.988 0,-1.772l0.977 0.651 0 0.471zm0 -2.799l0 0.488 -0.977 0c0,-0.172 0,-0.339 0,-0.488l0.977 0zm-2.197 -0.488l-0.977 0 -0.244 0 1.953 -1.464 0 1.464 -0.732 0zm-1.709 0.976l0 -0.488 0.488 0 0 0.488 -0.488 0zm1.465 0.977l-0.488 0c0,0 0,-1.465 0,-1.465l0.488 0 0 1.465zm0.488 -0.977l0 -0.488 0.488 0 0 0.488 -0.488 0zm3.661 11.961l-4.393 0 0 -0.489 0.732 0 2.929 0 0.732 0 0 0.489zm-0.976 -0.977l-2.441 0c0,0 0,-1.464 0,-1.464l0.488 0 1.465 0 0.488 0 0 1.464zm-1.709 -1.952c0,0 0,-0.85 0,-1.009l0.977 0.651 0 0.358 -0.977 0zm0.977 -7.779l-0.977 -0.651c0,-0.046 0,-0.069 0,-0.113l0.977 0 0 0.764zm0.488 -1.741l10.251 0 0 0.488 -3.905 0c0,0 0,0 0,0 0,0 0,0 0,0l-6.346 0 0 -0.488z"/>
   <path class="fil0" d="M13.669 13.913c0.135,0 0.244,-0.109 0.244,-0.244l0 -1.953c0,-0.134 -0.109,-0.244 -0.244,-0.244 -0.135,0 -0.244,0.11 -0.244,0.244l0 1.953c0,0.135 0.109,0.244 0.244,0.244z"/>
   <path class="fil0" d="M12.448 13.913c0.135,0 0.245,-0.109 0.245,-0.244l0 -1.953c0,-0.134 -0.11,-0.244 -0.245,-0.244 -0.134,0 -0.244,0.11 -0.244,0.244l0 1.953c0,0.135 0.11,0.244 0.244,0.244z"/>
   <path class="fil0" d="M11.228 13.913c0.135,0 0.244,-0.109 0.244,-0.244l0 -1.953c0,-0.134 -0.109,-0.244 -0.244,-0.244 -0.135,0 -0.244,0.11 -0.244,0.244l0 1.953c0,0.135 0.109,0.244 0.244,0.244z"/>
   <path class="fil0" d="M10.008 13.913c0.134,0 0.244,-0.109 0.244,-0.244l0 -1.953c0,-0.134 -0.11,-0.244 -0.244,-0.244 -0.135,0 -0.245,0.11 -0.245,0.244l0 1.953c0,0.135 0.11,0.244 0.245,0.244z"/>
   <path class="fil0" d="M8.787 13.913c0.135,0 0.244,-0.109 0.244,-0.244l0 -1.953c0,-0.134 -0.109,-0.244 -0.244,-0.244 -0.135,0 -0.244,0.11 -0.244,0.244l0 1.953c0,0.135 0.109,0.244 0.244,0.244z"/>
  </g>
 </g>
</svg>
