<?xml version="1.0" encoding="UTF-8"?>
<!DOCTYPE svg PUBLIC "-//W3C//DTD SVG 1.1//EN" "http://www.w3.org/Graphics/SVG/1.1/DTD/svg11.dtd">
<!-- Creator: CorelDRAW 2017 -->
<svg xmlns="http://www.w3.org/2000/svg" xml:space="preserve" width="53px" height="55px" version="1.1" style="shape-rendering:geometricPrecision; text-rendering:geometricPrecision; image-rendering:optimizeQuality; fill-rule:evenodd; clip-rule:evenodd"
viewBox="0 0 6.786 7.02"
 xmlns:xlink="http://www.w3.org/1999/xlink">
 <defs>
  <style type="text/css">
   <![CDATA[
    .fil0 {fill:#CC3300}
   ]]>
  </style>
 </defs>
 <g id="Слой_x0020_1">
  <metadata id="CorelCorpID_0Corel-Layer"/>
  <g id="Постановка_x0020_на_x0020_учет">
   <path class="fil0" d="M3.51 1.872l-1.638 0 0 1.638 1.638 0 0 -1.638zm-0.234 1.404l-1.17 0 0 -1.17 1.17 0 0 1.17z"/>
   <path class="fil0" d="M5.967 1.872l-1.872 0c-0.064,0 -0.117,0.052 -0.117,0.117 0,0.065 0.053,0.117 0.117,0.117l1.872 0c0.065,0 0.117,-0.052 0.117,-0.117 0,-0.065 -0.052,-0.117 -0.117,-0.117z"/>
   <path class="fil0" d="M5.967 2.574l-1.872 0c-0.064,0 -0.117,0.052 -0.117,0.117 0,0.065 0.053,0.117 0.117,0.117l1.872 0c0.065,0 0.117,-0.052 0.117,-0.117 0,-0.065 -0.052,-0.117 -0.117,-0.117z"/>
   <path class="fil0" d="M5.967 3.276l-1.872 0c-0.064,0 -0.117,0.053 -0.117,0.117 0,0.065 0.053,0.117 0.117,0.117l1.872 0c0.065,0 0.117,-0.052 0.117,-0.117 0,-0.064 -0.052,-0.117 -0.117,-0.117z"/>
   <path class="fil0" d="M5.967 3.978l-3.861 0c-0.065,0 -0.117,0.053 -0.117,0.117 0,0.065 0.052,0.117 0.117,0.117l3.861 0c0.065,0 0.117,-0.052 0.117,-0.117 0,-0.064 -0.052,-0.117 -0.117,-0.117z"/>
   <path class="fil0" d="M3.861 4.68l-1.755 0c-0.065,0 -0.117,0.053 -0.117,0.117 0,0.065 0.052,0.117 0.117,0.117l1.755 0c0.065,0 0.117,-0.052 0.117,-0.117 0,-0.064 -0.052,-0.117 -0.117,-0.117z"/>
   <path class="fil0" d="M3.861 5.382l-1.755 0c-0.065,0 -0.117,0.053 -0.117,0.117 0,0.065 0.052,0.117 0.117,0.117l1.755 0c0.065,0 0.117,-0.052 0.117,-0.117 0,-0.064 -0.052,-0.117 -0.117,-0.117z"/>
   <path class="fil0" d="M3.861 6.084l-1.755 0c-0.065,0 -0.117,0.053 -0.117,0.117 0,0.065 0.052,0.117 0.117,0.117l1.755 0c0.065,0 0.117,-0.052 0.117,-0.117 0,-0.064 -0.052,-0.117 -0.117,-0.117z"/>
   <path class="fil0" d="M4.446 6.318l1.638 0 0 -1.638 -1.638 0 0 1.638zm0.234 -1.404l1.17 0 0 1.17 -1.17 0 0 -1.17z"/>
   <path class="fil0" d="M6.786 1.521c0,-0.002 -0.001,-0.004 -0.001,-0.006l0 -1.515 -5.615 0 0 3.51 -1.17 0 0 2.808c0,0.388 0.315,0.702 0.702,0.702l5.382 0c0.387,0 0.701,-0.314 0.701,-0.7l0 -4.793c0,-0.002 0.001,-0.004 0.001,-0.006zm-0.235 -1.287l0 1.17 -5.147 0 0 -1.17 5.147 0zm-6.317 6.084l0 -2.574 0.936 0 0 2.574c0,0.259 -0.21,0.468 -0.468,0.468 -0.258,0 -0.468,-0.209 -0.468,-0.468zm5.85 0.468l-4.859 0c0.002,-0.002 0.003,-0.004 0.005,-0.006 0.024,-0.027 0.045,-0.057 0.065,-0.087 0.003,-0.005 0.006,-0.01 0.009,-0.015 0.019,-0.032 0.036,-0.065 0.05,-0.1 0.001,-0.004 0.003,-0.009 0.005,-0.014 0.013,-0.036 0.024,-0.073 0.032,-0.111 0,-0.004 0.001,-0.007 0.001,-0.011 0.008,-0.04 0.012,-0.081 0.012,-0.124l0 -2.808 0 -1.872 5.147 0 0 4.682c0,0.257 -0.209,0.466 -0.467,0.466z"/>
   <path class="fil0" d="M5.382 0.468l-2.808 0 0 0.702 2.808 0 0 -0.702zm-0.234 0.468l-2.34 0 0 -0.234 2.34 0 0 0.234z"/>
  </g>
 </g>
</svg>
