<?xml version="1.0" encoding="UTF-8"?>
<!DOCTYPE svg PUBLIC "-//W3C//DTD SVG 1.1//EN" "http://www.w3.org/Graphics/SVG/1.1/DTD/svg11.dtd">
<!-- Creator: CorelDRAW 2017 -->
<svg xmlns="http://www.w3.org/2000/svg" xml:space="preserve" width="53px" height="53px" version="1.1" style="shape-rendering:geometricPrecision; text-rendering:geometricPrecision; image-rendering:optimizeQuality; fill-rule:evenodd; clip-rule:evenodd"
viewBox="0 0 11.916 11.998"
 xmlns:xlink="http://www.w3.org/1999/xlink">
 <defs>
  <style type="text/css">
   <![CDATA[
    .fil0 {fill:#CC3300}
   ]]>
  </style>
 </defs>
 <g id="Слой_x0020_1">
  <metadata id="CorelCorpID_0Corel-Layer"/>
  <g id="Ремонт">
   <g>
    <g>
     <path class="fil0" d="M11.544 1.092l-0.721 -0.721c-0.471,-0.47 -1.263,-0.497 -1.767,-0.061l-1.267 1.099c-0.016,0.014 -0.03,0.03 -0.041,0.049l-1.233 2.054 -0.792 0.264c-0.067,0.023 -0.118,0.078 -0.134,0.147 -0.016,0.068 0.004,0.14 0.054,0.19l2.159 2.159c0.038,0.038 0.09,0.059 0.143,0.059 0.016,0 0.032,-0.002 0.047,-0.005 0.069,-0.016 0.124,-0.067 0.147,-0.134l0.264 -0.792 2.084 -1.259c0.019,-0.011 0.035,-0.025 0.049,-0.041l1.073 -1.243c0.434,-0.503 0.405,-1.295 -0.065,-1.765zm-0.244 1.499l-1.051 1.218 -2.121 1.281c-0.041,0.025 -0.072,0.064 -0.088,0.11l-0.183 0.551 -0.487 -0.486c0,0 0,-0.001 0,-0.001l-0.72 -0.719c0,0 0,0 0,0l-0.486 -0.487 0.551 -0.183c0.046,-0.016 0.085,-0.047 0.11,-0.089l1.255 -2.091 1.243 -1.077c0.346,-0.3 0.889,-0.281 1.212,0.041l0.721 0.721c0.322,0.323 0.342,0.866 0.044,1.211z"/>
    </g>
   </g>
   <g>
    <g>
     <path class="fil0" d="M10.967 8.177c-0.598,-0.598 -1.477,-0.805 -2.274,-0.547l-4.325 -4.325c0.259,-0.797 0.051,-1.676 -0.546,-2.274 -0.63,-0.629 -1.572,-0.826 -2.401,-0.501 -0.064,0.025 -0.111,0.081 -0.125,0.148 -0.014,0.067 0.007,0.137 0.055,0.185l1.295 1.295 -0.864 0.863 -1.294 -1.294c-0.049,-0.049 -0.118,-0.07 -0.186,-0.056 -0.067,0.014 -0.122,0.061 -0.147,0.125 -0.325,0.829 -0.128,1.772 0.501,2.401 0.597,0.598 1.477,0.805 2.273,0.547l1.618 1.617 -2.014 2.014 -1.281 0.716c-0.036,0.02 -0.064,0.05 -0.083,0.087l-0.575 1.151c-0.04,0.078 -0.024,0.173 0.038,0.235l0.719 0.719c0.039,0.039 0.091,0.06 0.144,0.06 0.031,0 0.062,-0.007 0.091,-0.022l1.151 -0.575c0.037,-0.019 0.067,-0.047 0.087,-0.083l0.716 -1.281 2.014 -2.014 1.7 1.701c-0.258,0.796 -0.05,1.676 0.547,2.273 0.428,0.428 1.001,0.656 1.584,0.656 0.274,0 0.551,-0.05 0.817,-0.154 0.064,-0.025 0.111,-0.081 0.125,-0.148 0.014,-0.067 -0.007,-0.137 -0.056,-0.186l-1.294 -1.294 0.863 -0.863 1.295 1.294c0.048,0.049 0.118,0.069 0.185,0.055 0.067,-0.014 0.123,-0.061 0.148,-0.125 0.325,-0.829 0.128,-1.771 -0.501,-2.4zm-7.735 0.937c-0.013,0.013 -0.024,0.029 -0.034,0.045l-0.699 1.251 -0.964 0.482 -0.512 -0.512 0.482 -0.964 1.251 -0.7c0.016,-0.009 0.031,-0.02 0.045,-0.033l2.033 -2.034 0.432 0.431 -2.034 2.034zm7.948 1.003l-1.196 -1.196c-0.079,-0.08 -0.208,-0.08 -0.288,0l-1.151 1.151c-0.038,0.038 -0.059,0.09 -0.059,0.144 0,0.054 0.021,0.105 0.059,0.144l1.197 1.196c-0.594,0.118 -1.216,-0.064 -1.653,-0.502 -0.515,-0.515 -0.676,-1.286 -0.41,-1.964 0.029,-0.075 0.011,-0.161 -0.046,-0.218l-4.507 -4.507c-0.039,-0.039 -0.091,-0.059 -0.144,-0.059 -0.025,0 -0.05,0.004 -0.074,0.014 -0.678,0.265 -1.449,0.104 -1.964,-0.411 -0.438,-0.437 -0.62,-1.059 -0.502,-1.652l1.196 1.196c0.08,0.079 0.209,0.079 0.288,0l1.151 -1.151c0.08,-0.08 0.08,-0.208 0,-0.288l-1.196 -1.196c0.593,-0.118 1.215,0.064 1.653,0.501 0.515,0.515 0.676,1.286 0.41,1.965 -0.03,0.075 -0.012,0.161 0.046,0.218l4.506 4.507c0.058,0.057 0.143,0.075 0.218,0.045 0.679,-0.266 1.45,-0.105 1.965,0.41 0.437,0.438 0.619,1.06 0.501,1.653z"/>
    </g>
   </g>
  </g>
 </g>
</svg>
